:FULLY-SPECIFIED
:DEGREES
1559
root 7.92845 16.7486 -3.64012 4548.99 -93.6364 -4533.99
lowerback 0.436231 1.6808 3.98684
upperback 1.75944 2.19144 0.557498
thorax 1.69127 1.13969 -1.63413
lowerneck -18.3952 1.52762 -2.34202
upperneck 33.2067 1.59944 1.95919
head 14.4644 0.408162 1.42503
rclavicle 7.95139e-015 1.11816e-014
rhumerus -24.2431 -5.99924 -81.5977
rradius 29.5661
rwrist 19.4418
rhand -25.1961 -14.2273
rfingers 7.12502
rthumb 1.32213 -44.2029
lclavicle 7.95139e-015 1.11816e-014
lhumerus -34.9163 -2.51374 84.3604
lradius 36.7934
lwrist 4.70693
lhand -20.7283 1.06958
lfingers 7.12502
lthumb 5.63664 30.9746
rfemur -22.646 4.26847 25.8176
rtibia 31.9032
rfoot -15.1606 -3.90842
rtoes -6.98576
lfemur -43.2751 8.29168 -19.3897
ltibia 55.8163
lfoot -4.38757 -5.59831
ltoes -16.7334
1560
root 7.94702 16.7371 -3.64052 4550.94 -93.5322 -4535.79
lowerback 0.378011 1.7762 3.93421
upperback 1.72218 2.31929 0.486428
thorax 1.69382 1.20347 -1.67442
lowerneck -18.3196 1.47365 -2.32194
upperneck 32.9774 1.55906 1.86689
head 14.3468 0.387963 1.37303
rclavicle -1.90833e-014 -7.25564e-015
rhumerus -23.7632 -5.14549 -81.7944
rradius 30.5328
rwrist 18.7305
rhand -25.8509 -14.3668
rfingers 7.12502
rthumb 0.689705 -44.3454
lclavicle -1.90833e-014 -7.25564e-015
lhumerus -35.2058 -2.25753 84.174
lradius 35.893
lwrist 4.51878
lhand -21.3302 1.04327
lfingers 7.12502
lthumb 5.05553 30.963
rfemur -21.668 4.39757 25.9312
rtibia 31.3452
rfoot -15.4563 -4.03807
rtoes -7.61282
lfemur -44.0776 8.18966 -19.7393
ltibia 53.3814
lfoot -4.80558 -5.26395
ltoes -15.602
1561
root 7.96578 16.7415 -3.64057 4553.84 -93.5353 -4538.55
lowerback 0.337098 1.85603 4.00944
upperback 1.68657 2.42548 0.440291
thorax 1.69177 1.25773 -1.76119
lowerneck -18.2098 1.42971 -2.30673
upperneck 32.731 1.53292 1.77654
head 14.2142 0.373544 1.32483
rclavicle 2.06736e-014 -2.51463e-014
rhumerus -23.2932 -4.26483 -82.0028
rradius 31.5624
rwrist 17.9439
rhand -26.617 -14.7142
rfingers 7.12502
rthumb -0.050202 -44.6939
lclavicle 2.06736e-014 -2.51463e-014
lhumerus -35.4568 -1.94562 83.9478
lradius 34.9568
lwrist 4.3845
lhand -22.1711 0.761238
lfingers 7.12502
lthumb 4.24351 30.6987
rfemur -20.5694 4.53244 26.1602
rtibia 30.5792
rfoot -15.6695 -4.21081
rtoes -8.46542
lfemur -44.8986 8.11209 -20.0012
ltibia 50.7379
lfoot -5.27627 -4.52396
ltoes -16.3607
1562
root 7.983 16.7322 -3.63681 4555.86 -93.5279 -4540.4
lowerback 0.259945 1.91328 4.05423
upperback 1.66497 2.49969 0.390324
thorax 1.72169 1.29639 -1.83373
lowerneck -18.2093 1.4061 -2.23925
upperneck 32.55 1.5466 1.61238
head 14.1363 0.371215 1.24717
rclavicle -7.95139e-015 -1.91827e-014
rhumerus -22.7978 -3.439 -82.1698
rradius 32.5862
rwrist 17.348
rhand -27.4778 -15.0554
rfingers 7.12502
rthumb -0.881597 -45.0333
lclavicle -7.95139e-015 -1.91827e-014
lhumerus -35.6957 -1.47869 83.7088
lradius 34.0656
lwrist 3.82235
lhand -23.2762 0.7786
lfingers 7.12502
lthumb 3.17638 30.7347
rfemur -19.487 4.60222 26.3134
rtibia 29.813
rfoot -15.9295 -4.32297
rtoes -9.02263
lfemur -45.482 7.99315 -20.31
ltibia 47.8379
lfoot -5.63443 -3.91425
ltoes -17.3329
1563
root 8.00302 16.7315 -3.6337 4559.11 -93.5112 -4543.53
lowerback 0.338682 2.01855 4.13674
upperback 1.61357 2.64643 0.313208
thorax 1.64147 1.36964 -1.9603
lowerneck -18.1467 1.3235 -2.17832
upperneck 32.3829 1.44311 1.5253
head 14.0531 0.327385 1.18148
rclavicle -1.59028e-015 2.18663e-015
rhumerus -22.3752 -2.74854 -82.3072
rradius 33.5383
rwrist 16.9215
rhand -28.5121 -15.3719
rfingers 7.12502
rthumb -1.88053 -45.3434
lclavicle -1.59028e-015 2.18663e-015
lhumerus -35.9131 -1.21811 83.4427
lradius 33.1829
lwrist 3.37271
lhand -24.4461 0.88867
lfingers 7.12502
lthumb 2.04649 30.8586
rfemur -18.287 4.62063 26.5123
rtibia 28.8717
rfoot -15.9399 -4.18259
rtoes -9.01474
lfemur -45.9574 7.84157 -20.4656
ltibia 44.7641
lfoot -5.95691 -3.0844
ltoes -17.0863
